<svg xmlns="http://www.w3.org/2000/svg" viewBox="530.736 150.172 19.372 16.991"><defs><style>.a{fill:#fff;}</style></defs><g transform="translate(730.559 240.338)"><path class="a" d="M2.337,21.825a3.235,3.235,0,0,1-1.061-.176l-.767-.265.589-.558A3.081,3.081,0,0,0,2.087,18.6,7.874,7.874,0,0,1,0,13.33c0-4.684,4.345-8.5,9.686-8.5s9.686,3.811,9.686,8.5-4.345,8.5-9.686,8.5a10.788,10.788,0,0,1-4.557-1A5.1,5.1,0,0,1,2.337,21.825Zm2.677-2.156.283.143A9.767,9.767,0,0,0,9.686,20.84c4.8,0,8.7-3.369,8.7-7.51s-3.9-7.511-8.7-7.511S.985,9.188.985,13.33a6.916,6.916,0,0,0,1.952,4.737l.128.136.006.186a4.076,4.076,0,0,1-.694,2.45,4.411,4.411,0,0,0,2.39-.973Z" transform="translate(-199.822 -95)"/></g></svg>